<svg xmlns="http://www.w3.org/2000/svg"  viewBox="0 0 48 48" width="48px" height="48px"><path d="M 10.5 6 C 8.0324991 6 6 8.0324991 6 10.5 L 6 37.5 C 6 39.967501 8.0324991 42 10.5 42 L 37.5 42 C 39.967501 42 42 39.967501 42 37.5 L 42 10.5 C 42 8.0324991 39.967501 6 37.5 6 L 10.5 6 z M 10.5 9 L 37.5 9 C 38.346499 9 39 9.6535009 39 10.5 L 39 37.5 C 39 38.346499 38.346499 39 37.5 39 L 10.5 39 C 9.6535009 39 9 38.346499 9 37.5 L 9 10.5 C 9 9.6535009 9.6535009 9 10.5 9 z M 24.001953 10.958984 C 21.502953 10.785984 18.879469 12.154109 17.605469 14.412109 C 17.568722 14.472805 17.544352 14.539658 17.509766 14.601562 C 15.657868 14.743433 13.788119 15.789259 12.705078 17.478516 C 11.306078 19.556516 11.180047 22.512141 12.498047 24.744141 C 12.532318 24.806358 12.578834 24.86092 12.615234 24.921875 C 11.812172 26.596684 11.783441 28.736954 12.705078 30.519531 C 13.805078 32.770531 16.300578 34.357031 18.892578 34.332031 C 18.963134 34.333452 19.032985 34.321334 19.103516 34.320312 C 20.152112 35.853599 21.993057 36.947556 23.998047 37.041016 C 26.497047 37.214016 29.120531 35.845891 30.394531 33.587891 C 30.431278 33.527195 30.455648 33.460342 30.490234 33.398438 C 32.342132 33.256567 34.211881 32.210741 35.294922 30.521484 C 36.693922 28.443484 36.819953 25.487859 35.501953 23.255859 C 35.467682 23.193642 35.421166 23.13908 35.384766 23.078125 C 36.187828 21.403316 36.216559 19.263046 35.294922 17.480469 C 34.194922 15.229469 31.699422 13.642969 29.107422 13.667969 C 29.036866 13.666548 28.967015 13.678666 28.896484 13.679688 C 27.847888 12.146401 26.006943 11.052444 24.001953 10.958984 z M 24.613281 13.445312 C 25.373784 13.467569 26.146713 13.669263 26.873047 14.033203 C 26.36841 14.201232 25.878189 14.411869 25.425781 14.679688 C 24.348781 15.364688 23.423094 16.318125 22.871094 17.453125 C 22.053017 18.999532 21.985408 20.830044 22.513672 22.380859 A 2.2 2.2 0 0 0 22.185547 22.757812 C 21.208437 22.168214 20.461167 21.345309 20.029297 20.396484 C 19.341297 18.944484 19.438406 17.239156 20.191406 15.910156 C 20.935406 14.550156 22.379 13.629844 24 13.464844 C 24.203 13.445344 24.407193 13.439281 24.613281 13.445312 z M 16.804688 16.529297 C 16.69801 17.050244 16.634857 17.579749 16.640625 18.105469 C 16.695625 19.380469 17.061578 20.659078 17.767578 21.705078 C 18.697225 23.186164 20.246883 24.15836 21.853516 24.476562 A 2.2 2.2 0 0 0 22.017578 24.949219 C 21.018159 25.501089 19.930911 25.735374 18.892578 25.634766 C 17.291578 25.504766 15.863844 24.567953 15.089844 23.251953 C 14.283844 21.927953 14.207 20.219422 14.875 18.732422 C 15.271894 17.861834 15.942437 17.097414 16.804688 16.529297 z M 29.105469 16.658203 C 30.654469 16.622203 32.173953 17.410422 33.126953 18.732422 C 33.682179 19.511614 34.00751 20.475205 34.068359 21.505859 C 33.67037 21.152679 33.243576 20.832286 32.785156 20.574219 C 31.653156 19.984219 30.362516 19.659047 29.103516 19.748047 C 27.35561 19.812938 25.739023 20.671489 24.660156 21.904297 A 2.2 2.2 0 0 0 24.171875 21.810547 C 24.193565 20.668779 24.532331 19.610597 25.138672 18.761719 C 26.051672 17.439719 27.578469 16.670203 29.105469 16.658203 z M 28.498047 22.34375 C 28.701986 22.338471 28.906172 22.345734 29.107422 22.365234 C 30.708422 22.495234 32.136156 23.432047 32.910156 24.748047 C 33.716156 26.072047 33.793 27.780578 33.125 29.267578 C 32.728106 30.138166 32.057563 30.902586 31.195312 31.470703 C 31.30199 30.949756 31.365143 30.420251 31.359375 29.894531 C 31.304375 28.619531 30.938422 27.340922 30.232422 26.294922 C 29.302775 24.813836 27.753117 23.84164 26.146484 23.523438 A 2.2 2.2 0 0 0 25.982422 23.050781 C 26.788134 22.605875 27.649777 22.365709 28.498047 22.34375 z M 25.814453 25.242188 C 26.791563 25.831786 27.538833 26.654691 27.970703 27.603516 C 28.658703 29.055516 28.561594 30.760844 27.808594 32.089844 C 27.064594 33.449844 25.621 34.370156 24 34.535156 C 23.047892 34.626615 22.050116 34.429361 21.126953 33.966797 C 21.63159 33.798768 22.121811 33.588131 22.574219 33.320312 C 23.651219 32.635312 24.576906 31.681875 25.128906 30.546875 C 25.946983 29.000468 26.014592 27.169956 25.486328 25.619141 A 2.2 2.2 0 0 0 25.814453 25.242188 z M 23.339844 26.095703 A 2.2 2.2 0 0 0 23.828125 26.189453 C 23.806435 27.331221 23.467669 28.389403 22.861328 29.238281 C 21.948328 30.560281 20.421531 31.329797 18.894531 31.341797 C 17.345531 31.377797 15.826047 30.589578 14.873047 29.267578 C 14.317821 28.488386 13.99249 27.524795 13.931641 26.494141 C 14.32963 26.847321 14.756424 27.167714 15.214844 27.425781 C 16.346844 28.015781 17.637484 28.340953 18.896484 28.251953 C 20.64439 28.187062 22.260977 27.328511 23.339844 26.095703 z"/></svg>